<mxfile host="app.diagrams.net" agent="Mozilla/5.0 (Windows NT 10.0; Win64; x64) AppleWebKit/537.36 (KHTML, like Gecko) Chrome/134.0.0.0 Safari/537.36" version="26.0.10">
  <diagram name="Página-1" id="PxH3ORiB9lDNpWnGiKfN">
    <mxGraphModel dx="819" dy="425" grid="1" gridSize="10" guides="1" tooltips="1" connect="1" arrows="1" fold="1" page="1" pageScale="1" pageWidth="827" pageHeight="1169" math="0" shadow="0">
      <root>
        <mxCell id="0" />
        <mxCell id="1" parent="0" />
        <mxCell id="zkI9CQB_9QL-QuIpJEmP-4" style="edgeStyle=orthogonalEdgeStyle;rounded=0;orthogonalLoop=1;jettySize=auto;html=1;exitX=0.75;exitY=1;exitDx=0;exitDy=0;entryX=0.5;entryY=0;entryDx=0;entryDy=0;" edge="1" parent="1" source="zkI9CQB_9QL-QuIpJEmP-1" target="zkI9CQB_9QL-QuIpJEmP-2">
          <mxGeometry relative="1" as="geometry" />
        </mxCell>
        <mxCell id="zkI9CQB_9QL-QuIpJEmP-7" style="edgeStyle=orthogonalEdgeStyle;rounded=0;orthogonalLoop=1;jettySize=auto;html=1;exitX=0.5;exitY=0;exitDx=0;exitDy=0;entryX=0.5;entryY=1;entryDx=0;entryDy=0;" edge="1" parent="1" source="zkI9CQB_9QL-QuIpJEmP-1" target="zkI9CQB_9QL-QuIpJEmP-6">
          <mxGeometry relative="1" as="geometry" />
        </mxCell>
        <mxCell id="zkI9CQB_9QL-QuIpJEmP-25" style="edgeStyle=orthogonalEdgeStyle;rounded=0;orthogonalLoop=1;jettySize=auto;html=1;exitX=1;exitY=0.75;exitDx=0;exitDy=0;entryX=0;entryY=0.5;entryDx=0;entryDy=0;dashed=1;" edge="1" parent="1" source="zkI9CQB_9QL-QuIpJEmP-1" target="zkI9CQB_9QL-QuIpJEmP-24">
          <mxGeometry relative="1" as="geometry" />
        </mxCell>
        <mxCell id="zkI9CQB_9QL-QuIpJEmP-30" style="edgeStyle=orthogonalEdgeStyle;rounded=0;orthogonalLoop=1;jettySize=auto;html=1;exitX=0;exitY=0.25;exitDx=0;exitDy=0;entryX=1;entryY=0.5;entryDx=0;entryDy=0;startArrow=classic;startFill=1;" edge="1" parent="1" source="zkI9CQB_9QL-QuIpJEmP-1" target="zkI9CQB_9QL-QuIpJEmP-29">
          <mxGeometry relative="1" as="geometry" />
        </mxCell>
        <mxCell id="zkI9CQB_9QL-QuIpJEmP-1" value="DASHBOARD&lt;div&gt;General&lt;/div&gt;" style="rounded=1;whiteSpace=wrap;html=1;" vertex="1" parent="1">
          <mxGeometry x="410" y="290" width="120" height="60" as="geometry" />
        </mxCell>
        <mxCell id="zkI9CQB_9QL-QuIpJEmP-5" style="edgeStyle=orthogonalEdgeStyle;rounded=0;orthogonalLoop=1;jettySize=auto;html=1;exitX=0.25;exitY=0;exitDx=0;exitDy=0;entryX=0.5;entryY=1;entryDx=0;entryDy=0;" edge="1" parent="1" source="zkI9CQB_9QL-QuIpJEmP-2" target="zkI9CQB_9QL-QuIpJEmP-1">
          <mxGeometry relative="1" as="geometry" />
        </mxCell>
        <mxCell id="zkI9CQB_9QL-QuIpJEmP-40" style="edgeStyle=orthogonalEdgeStyle;rounded=0;orthogonalLoop=1;jettySize=auto;html=1;exitX=0.75;exitY=0;exitDx=0;exitDy=0;entryX=0.25;entryY=1;entryDx=0;entryDy=0;" edge="1" parent="1" source="zkI9CQB_9QL-QuIpJEmP-2" target="zkI9CQB_9QL-QuIpJEmP-8">
          <mxGeometry relative="1" as="geometry">
            <Array as="points">
              <mxPoint x="550" y="400" />
              <mxPoint x="550" y="270" />
              <mxPoint x="610" y="270" />
            </Array>
          </mxGeometry>
        </mxCell>
        <mxCell id="zkI9CQB_9QL-QuIpJEmP-2" value="Tareas (To-DOs)" style="rounded=1;whiteSpace=wrap;html=1;" vertex="1" parent="1">
          <mxGeometry x="440" y="400" width="120" height="40" as="geometry" />
        </mxCell>
        <mxCell id="zkI9CQB_9QL-QuIpJEmP-10" style="edgeStyle=orthogonalEdgeStyle;rounded=0;orthogonalLoop=1;jettySize=auto;html=1;exitX=1;exitY=0.5;exitDx=0;exitDy=0;entryX=0;entryY=0.5;entryDx=0;entryDy=0;" edge="1" parent="1" source="zkI9CQB_9QL-QuIpJEmP-6" target="zkI9CQB_9QL-QuIpJEmP-8">
          <mxGeometry relative="1" as="geometry" />
        </mxCell>
        <mxCell id="zkI9CQB_9QL-QuIpJEmP-6" value="Proyectos" style="rounded=1;whiteSpace=wrap;html=1;" vertex="1" parent="1">
          <mxGeometry x="410" y="210" width="120" height="30" as="geometry" />
        </mxCell>
        <mxCell id="zkI9CQB_9QL-QuIpJEmP-8" value="Calendario" style="shape=process;whiteSpace=wrap;html=1;backgroundOutline=1;" vertex="1" parent="1">
          <mxGeometry x="580" y="215" width="120" height="20" as="geometry" />
        </mxCell>
        <mxCell id="zkI9CQB_9QL-QuIpJEmP-19" style="edgeStyle=orthogonalEdgeStyle;rounded=0;orthogonalLoop=1;jettySize=auto;html=1;exitX=1;exitY=0.5;exitDx=0;exitDy=0;entryX=0;entryY=0.25;entryDx=0;entryDy=0;" edge="1" parent="1" source="zkI9CQB_9QL-QuIpJEmP-11" target="zkI9CQB_9QL-QuIpJEmP-16">
          <mxGeometry relative="1" as="geometry" />
        </mxCell>
        <mxCell id="zkI9CQB_9QL-QuIpJEmP-11" value="Profesional" style="rounded=1;whiteSpace=wrap;html=1;" vertex="1" parent="1">
          <mxGeometry x="600" y="294" width="80" height="20" as="geometry" />
        </mxCell>
        <mxCell id="zkI9CQB_9QL-QuIpJEmP-14" value="CV" style="rounded=0;whiteSpace=wrap;html=1;" vertex="1" parent="1">
          <mxGeometry x="600" y="330" width="30" height="20" as="geometry" />
        </mxCell>
        <mxCell id="zkI9CQB_9QL-QuIpJEmP-21" style="edgeStyle=orthogonalEdgeStyle;rounded=0;orthogonalLoop=1;jettySize=auto;html=1;exitX=0.75;exitY=1;exitDx=0;exitDy=0;entryX=0.5;entryY=1;entryDx=0;entryDy=0;" edge="1" parent="1" source="zkI9CQB_9QL-QuIpJEmP-15" target="zkI9CQB_9QL-QuIpJEmP-16">
          <mxGeometry relative="1" as="geometry">
            <Array as="points">
              <mxPoint x="662" y="360" />
              <mxPoint x="780" y="360" />
            </Array>
          </mxGeometry>
        </mxCell>
        <mxCell id="zkI9CQB_9QL-QuIpJEmP-15" value="Skills" style="rounded=0;whiteSpace=wrap;html=1;" vertex="1" parent="1">
          <mxGeometry x="640" y="330" width="30" height="20" as="geometry" />
        </mxCell>
        <mxCell id="zkI9CQB_9QL-QuIpJEmP-16" value="Job Applications&lt;div&gt;(BBDD)&lt;/div&gt;" style="shape=process;whiteSpace=wrap;html=1;backgroundOutline=1;" vertex="1" parent="1">
          <mxGeometry x="720" y="294" width="120" height="40" as="geometry" />
        </mxCell>
        <mxCell id="zkI9CQB_9QL-QuIpJEmP-17" style="edgeStyle=orthogonalEdgeStyle;rounded=0;orthogonalLoop=1;jettySize=auto;html=1;exitX=0.5;exitY=0;exitDx=0;exitDy=0;entryX=0.7;entryY=1.017;entryDx=0;entryDy=0;entryPerimeter=0;" edge="1" parent="1" source="zkI9CQB_9QL-QuIpJEmP-15" target="zkI9CQB_9QL-QuIpJEmP-11">
          <mxGeometry relative="1" as="geometry" />
        </mxCell>
        <mxCell id="zkI9CQB_9QL-QuIpJEmP-18" style="edgeStyle=orthogonalEdgeStyle;rounded=0;orthogonalLoop=1;jettySize=auto;html=1;exitX=0.5;exitY=0;exitDx=0;exitDy=0;entryX=0.192;entryY=1.017;entryDx=0;entryDy=0;entryPerimeter=0;" edge="1" parent="1" source="zkI9CQB_9QL-QuIpJEmP-14" target="zkI9CQB_9QL-QuIpJEmP-11">
          <mxGeometry relative="1" as="geometry" />
        </mxCell>
        <mxCell id="zkI9CQB_9QL-QuIpJEmP-20" style="edgeStyle=orthogonalEdgeStyle;rounded=0;orthogonalLoop=1;jettySize=auto;html=1;exitX=0.75;exitY=1;exitDx=0;exitDy=0;entryX=0.627;entryY=0.996;entryDx=0;entryDy=0;entryPerimeter=0;" edge="1" parent="1" source="zkI9CQB_9QL-QuIpJEmP-14" target="zkI9CQB_9QL-QuIpJEmP-16">
          <mxGeometry relative="1" as="geometry" />
        </mxCell>
        <mxCell id="zkI9CQB_9QL-QuIpJEmP-23" value="" style="endArrow=classic;html=1;rounded=0;entryX=0;entryY=0.5;entryDx=0;entryDy=0;exitX=1;exitY=0.25;exitDx=0;exitDy=0;startArrow=classic;startFill=1;" edge="1" parent="1" source="zkI9CQB_9QL-QuIpJEmP-1" target="zkI9CQB_9QL-QuIpJEmP-11">
          <mxGeometry width="50" height="50" relative="1" as="geometry">
            <mxPoint x="590" y="350" as="sourcePoint" />
            <mxPoint x="640" y="300" as="targetPoint" />
          </mxGeometry>
        </mxCell>
        <mxCell id="zkI9CQB_9QL-QuIpJEmP-24" value="&lt;font style=&quot;font-size: 9px;&quot;&gt;Hemeroteca&lt;/font&gt;&lt;div&gt;&lt;font style=&quot;font-size: 9px;&quot;&gt;(Libros, Musica, Videos)&lt;/font&gt;&lt;/div&gt;" style="rounded=0;whiteSpace=wrap;html=1;" vertex="1" parent="1">
          <mxGeometry x="630" y="380" width="100" height="30" as="geometry" />
        </mxCell>
        <mxCell id="zkI9CQB_9QL-QuIpJEmP-39" style="edgeStyle=orthogonalEdgeStyle;rounded=0;orthogonalLoop=1;jettySize=auto;html=1;exitX=0.5;exitY=1;exitDx=0;exitDy=0;entryX=0.5;entryY=0;entryDx=0;entryDy=0;" edge="1" parent="1" source="zkI9CQB_9QL-QuIpJEmP-26" target="zkI9CQB_9QL-QuIpJEmP-38">
          <mxGeometry relative="1" as="geometry" />
        </mxCell>
        <mxCell id="zkI9CQB_9QL-QuIpJEmP-26" value="Economia" style="rounded=1;whiteSpace=wrap;html=1;" vertex="1" parent="1">
          <mxGeometry x="250" y="325" width="80" height="20" as="geometry" />
        </mxCell>
        <mxCell id="zkI9CQB_9QL-QuIpJEmP-28" style="edgeStyle=orthogonalEdgeStyle;rounded=0;orthogonalLoop=1;jettySize=auto;html=1;entryX=1;entryY=0.5;entryDx=0;entryDy=0;exitX=0;exitY=0.75;exitDx=0;exitDy=0;startArrow=classic;startFill=1;" edge="1" parent="1" source="zkI9CQB_9QL-QuIpJEmP-1" target="zkI9CQB_9QL-QuIpJEmP-26">
          <mxGeometry relative="1" as="geometry">
            <mxPoint x="410" y="340" as="sourcePoint" />
          </mxGeometry>
        </mxCell>
        <mxCell id="zkI9CQB_9QL-QuIpJEmP-36" style="edgeStyle=orthogonalEdgeStyle;rounded=0;orthogonalLoop=1;jettySize=auto;html=1;exitX=0.5;exitY=0;exitDx=0;exitDy=0;entryX=0.5;entryY=1;entryDx=0;entryDy=0;" edge="1" parent="1" source="zkI9CQB_9QL-QuIpJEmP-29" target="zkI9CQB_9QL-QuIpJEmP-32">
          <mxGeometry relative="1" as="geometry" />
        </mxCell>
        <mxCell id="zkI9CQB_9QL-QuIpJEmP-29" value="Doméstico" style="rounded=1;whiteSpace=wrap;html=1;" vertex="1" parent="1">
          <mxGeometry x="250" y="295" width="80" height="20" as="geometry" />
        </mxCell>
        <mxCell id="zkI9CQB_9QL-QuIpJEmP-34" style="edgeStyle=orthogonalEdgeStyle;rounded=0;orthogonalLoop=1;jettySize=auto;html=1;entryX=0.25;entryY=0;entryDx=0;entryDy=0;" edge="1" parent="1" source="zkI9CQB_9QL-QuIpJEmP-32" target="zkI9CQB_9QL-QuIpJEmP-8">
          <mxGeometry relative="1" as="geometry">
            <mxPoint x="610" y="210" as="targetPoint" />
            <Array as="points">
              <mxPoint x="290" y="200" />
              <mxPoint x="610" y="200" />
            </Array>
          </mxGeometry>
        </mxCell>
        <mxCell id="zkI9CQB_9QL-QuIpJEmP-32" value="&lt;font style=&quot;font-size: 7px;&quot;&gt;Tareas de casa&lt;/font&gt;" style="rounded=0;whiteSpace=wrap;html=1;align=center;" vertex="1" parent="1">
          <mxGeometry x="260" y="260" width="60" height="15" as="geometry" />
        </mxCell>
        <mxCell id="zkI9CQB_9QL-QuIpJEmP-38" value="&lt;font style=&quot;font-size: 7px;&quot;&gt;Dashboard&lt;/font&gt;" style="rounded=0;whiteSpace=wrap;html=1;align=center;" vertex="1" parent="1">
          <mxGeometry x="260" y="362" width="60" height="15" as="geometry" />
        </mxCell>
        <mxCell id="zkI9CQB_9QL-QuIpJEmP-49" style="edgeStyle=orthogonalEdgeStyle;rounded=0;orthogonalLoop=1;jettySize=auto;html=1;exitX=0.25;exitY=0;exitDx=0;exitDy=0;entryX=0;entryY=0.5;entryDx=0;entryDy=0;" edge="1" parent="1" source="zkI9CQB_9QL-QuIpJEmP-41" target="zkI9CQB_9QL-QuIpJEmP-32">
          <mxGeometry relative="1" as="geometry" />
        </mxCell>
        <mxCell id="zkI9CQB_9QL-QuIpJEmP-41" value="Economía Doméstica" style="rounded=1;whiteSpace=wrap;html=1;" vertex="1" parent="1">
          <mxGeometry x="200" y="410" width="80" height="30" as="geometry" />
        </mxCell>
        <mxCell id="zkI9CQB_9QL-QuIpJEmP-42" value="Inversiones y&lt;div&gt;patrimonio&lt;/div&gt;" style="rounded=1;whiteSpace=wrap;html=1;" vertex="1" parent="1">
          <mxGeometry x="300" y="410" width="80" height="30" as="geometry" />
        </mxCell>
        <mxCell id="zkI9CQB_9QL-QuIpJEmP-44" style="edgeStyle=orthogonalEdgeStyle;rounded=0;orthogonalLoop=1;jettySize=auto;html=1;exitX=0.25;exitY=1;exitDx=0;exitDy=0;entryX=0.86;entryY=0.027;entryDx=0;entryDy=0;entryPerimeter=0;" edge="1" parent="1" source="zkI9CQB_9QL-QuIpJEmP-38" target="zkI9CQB_9QL-QuIpJEmP-41">
          <mxGeometry relative="1" as="geometry" />
        </mxCell>
        <mxCell id="zkI9CQB_9QL-QuIpJEmP-45" style="edgeStyle=orthogonalEdgeStyle;rounded=0;orthogonalLoop=1;jettySize=auto;html=1;exitX=0.75;exitY=1;exitDx=0;exitDy=0;entryX=0.16;entryY=0.027;entryDx=0;entryDy=0;entryPerimeter=0;" edge="1" parent="1" source="zkI9CQB_9QL-QuIpJEmP-38" target="zkI9CQB_9QL-QuIpJEmP-42">
          <mxGeometry relative="1" as="geometry" />
        </mxCell>
        <mxCell id="zkI9CQB_9QL-QuIpJEmP-48" style="edgeStyle=orthogonalEdgeStyle;rounded=0;orthogonalLoop=1;jettySize=auto;html=1;entryX=0.5;entryY=1;entryDx=0;entryDy=0;" edge="1" parent="1" source="zkI9CQB_9QL-QuIpJEmP-46" target="zkI9CQB_9QL-QuIpJEmP-42">
          <mxGeometry relative="1" as="geometry" />
        </mxCell>
        <mxCell id="zkI9CQB_9QL-QuIpJEmP-46" value="&lt;font style=&quot;font-size: 10px;&quot;&gt;Análisis&lt;/font&gt;&lt;div&gt;&lt;font style=&quot;font-size: 10px;&quot;&gt;Seguimiento&lt;/font&gt;&lt;/div&gt;&lt;div&gt;&lt;font style=&quot;font-size: 10px;&quot;&gt;Estrategias&lt;/font&gt;&lt;/div&gt;" style="shape=process;whiteSpace=wrap;html=1;backgroundOutline=1;" vertex="1" parent="1">
          <mxGeometry x="287" y="460" width="106" height="50" as="geometry" />
        </mxCell>
      </root>
    </mxGraphModel>
  </diagram>
</mxfile>
